<svg width="174" height="39" viewBox="0 0 174 39" fill="none" xmlns="http://www.w3.org/2000/svg">
<rect width="174" height="39" rx="4" fill="#F5CA2E"/>
<path d="M59.8877 22.9229L62.3047 13.7031H65.0293L61.1533 26.5H58.6396L54.7725 13.7031H57.4971L59.8877 22.9229ZM75.3916 21.042C75.3916 21.8623 75.2832 22.6182 75.0664 23.3096C74.8496 24.001 74.5361 24.5957 74.126 25.0938C73.7158 25.5918 73.2148 25.9814 72.623 26.2627C72.0371 26.5381 71.375 26.6758 70.6367 26.6758C69.8984 26.6758 69.2422 26.5381 68.668 26.2627C68.0938 25.9814 67.6104 25.5918 67.2178 25.0938C66.8252 24.5898 66.5264 23.9951 66.3213 23.3096C66.1162 22.6182 66.0137 21.8623 66.0137 21.042V19.1787C66.0137 18.3584 66.1162 17.6025 66.3213 16.9111C66.5264 16.2197 66.8252 15.625 67.2178 15.127C67.6104 14.623 68.0908 14.2305 68.6592 13.9492C69.2334 13.668 69.8896 13.5273 70.6279 13.5273C71.3721 13.5273 72.0371 13.668 72.623 13.9492C73.2148 14.2305 73.7158 14.623 74.126 15.127C74.5361 15.625 74.8496 16.2197 75.0664 16.9111C75.2832 17.6025 75.3916 18.3584 75.3916 19.1787V21.042ZM72.8867 19.1611C72.8867 18.6396 72.8428 18.1592 72.7549 17.7197C72.6729 17.2803 72.541 16.9023 72.3594 16.5859C72.1777 16.2695 71.9434 16.0234 71.6562 15.8477C71.375 15.666 71.0322 15.5752 70.6279 15.5752C70.2295 15.5752 69.8955 15.666 69.626 15.8477C69.3564 16.0234 69.1396 16.2695 68.9756 16.5859C68.8115 16.9023 68.6943 17.2803 68.624 17.7197C68.5537 18.1592 68.5186 18.6396 68.5186 19.1611V21.042C68.5186 21.5576 68.5537 22.0352 68.624 22.4746C68.6943 22.9141 68.8115 23.2949 68.9756 23.6172C69.1396 23.9395 69.3564 24.1914 69.626 24.373C69.8955 24.5547 70.2324 24.6455 70.6367 24.6455C71.0352 24.6455 71.375 24.5547 71.6562 24.373C71.9434 24.1914 72.1748 23.9424 72.3506 23.626C72.5322 23.3037 72.667 22.9229 72.7549 22.4834C72.8428 22.0439 72.8867 21.5635 72.8867 21.042V19.1611ZM79.918 24.5049H85.9121V26.5H77.4395V13.7031H79.918V24.5049ZM97.4873 15.7158H93.541V26.5H91.0625V15.7158H87.1689V13.7031H97.4873V15.7158ZM105.187 23.8281H101.346L100.59 26.5H97.9883L102.181 13.7031H104.422L108.535 26.5H105.934L105.187 23.8281ZM101.952 21.7275H104.606L103.297 17.0166L101.952 21.7275ZM114.046 21.7188H112.174V26.5H109.704V13.7031H113.993C114.702 13.7031 115.344 13.7881 115.918 13.958C116.492 14.1221 116.981 14.3652 117.386 14.6875C117.796 15.0098 118.109 15.4111 118.326 15.8916C118.549 16.3721 118.66 16.9287 118.66 17.5615C118.66 18.0186 118.604 18.4316 118.493 18.8008C118.388 19.1641 118.232 19.4922 118.027 19.7852C117.828 20.0723 117.585 20.3242 117.298 20.541C117.017 20.7578 116.7 20.9453 116.349 21.1035L119.1 26.3857V26.5H116.454L114.046 21.7188ZM112.174 19.7148H114.002C114.699 19.7148 115.235 19.5391 115.61 19.1875C115.991 18.8301 116.182 18.3438 116.182 17.7285C116.182 17.0898 115.997 16.5947 115.628 16.2432C115.259 15.8857 114.714 15.707 113.993 15.707H112.174V19.7148Z" fill="black"/>
</svg>
